<?xml version="1.0" encoding="utf-8"?>
<!-- Generated by Mocodo 4.2.12 -->
<svg width="472" height="313" viewBox="0 0 472 313" xmlns="http://www.w3.org/2000/svg">
<rect x="0" y="0" width="472" height="313" fill="#f7f7f7" stroke="none" stroke-width="0"/>

<!-- Association WRITE -->
<g>
	<line x1="159" y1="85" x2="48" y2="85" stroke="#7fbc41" stroke-width="2"/>
	<line x1="48" y1="245" x2="48" y2="85" stroke="#7fbc41" stroke-width="2"/>
	<g>
		<path d="M57 60 a14 14 90 0 1 14 14 V85 h-46 V74 a14 14 90 0 1 14 -14" fill="#b8e186" stroke="#b8e186" stroke-width="0"/>
		<path d="M71 85 v11 a14 14 90 0 1 -14 14 H39 a14 14 90 0 1 -14 -14 V85 H46" fill="#e6f5d0" stroke="#e6f5d0" stroke-width="0"/>
		<rect x="25" y="60" width="46" height="50" fill="none" rx="14" stroke="#7fbc41" stroke-width="2"/>
		<line x1="25" y1="85" x2="71" y2="85" stroke="#7fbc41" stroke-width="1"/>
		<text x="33" y="77.75" fill="#000000" font-family="Verdana" font-size="12">write</text>
	</g>
	<text x="77" y="102" fill="#c51b7d" font-family="Verdana" font-size="12">1,1</text>
	<text x="53" y="186" fill="#c51b7d" font-family="Verdana" font-size="12">0,N</text>
</g>

<!-- Association ORDER -->
<g>
	<line x1="159" y1="85" x2="271" y2="85" stroke="#7fbc41" stroke-width="2"/>
	<line x1="395" y1="85" x2="271" y2="85" stroke="#7fbc41" stroke-width="2"/>
	<g>
		<path d="M281 60 a14 14 90 0 1 14 14 V85 h-48 V74 a14 14 90 0 1 14 -14" fill="#b8e186" stroke="#b8e186" stroke-width="0"/>
		<path d="M295 85 v11 a14 14 90 0 1 -14 14 H261 a14 14 90 0 1 -14 -14 V85 H48" fill="#e6f5d0" stroke="#e6f5d0" stroke-width="0"/>
		<rect x="247" y="60" width="48" height="50" fill="none" rx="14" stroke="#7fbc41" stroke-width="2"/>
		<line x1="247" y1="85" x2="295" y2="85" stroke="#7fbc41" stroke-width="1"/>
		<text x="255" y="77.75" fill="#000000" font-family="Verdana" font-size="12">order</text>
	</g>
	<text x="220" y="102" fill="#c51b7d" font-family="Verdana" font-size="12">0,1</text>
	<text x="301" y="77" fill="#c51b7d" font-family="Verdana" font-size="12">1,1</text>
</g>

<!-- Association CARRY_OUT -->
<g>
	<line x1="159" y1="245" x2="271" y2="245" stroke="#7fbc41" stroke-width="2"/>
	<line x1="395" y1="85" x2="271" y2="245" stroke="#7fbc41" stroke-width="2"/>
	<g>
		<path d="M292 220 a14 14 90 0 1 14 14 V245 h-70 V234 a14 14 90 0 1 14 -14" fill="#b8e186" stroke="#b8e186" stroke-width="0"/>
		<path d="M306 245 v11 a14 14 90 0 1 -14 14 H250 a14 14 90 0 1 -14 -14 V245 H70" fill="#e6f5d0" stroke="#e6f5d0" stroke-width="0"/>
		<rect x="236" y="220" width="70" height="50" fill="none" rx="14" stroke="#7fbc41" stroke-width="2"/>
		<line x1="236" y1="245" x2="306" y2="245" stroke="#7fbc41" stroke-width="1"/>
		<text x="243" y="237.75" fill="#000000" font-family="Verdana" font-size="12">carry out</text>
	</g>
	<text x="202" y="262" fill="#c51b7d" font-family="Verdana" font-size="12">0,N</text>
	<text x="341.49" y="170" fill="#c51b7d" font-family="Verdana" font-size="12">1,N</text>
</g>

<!-- Entity BOOKS -->
<g>
	<g>
		<rect x="103" y="9" width="112" height="25" fill="#f1b6da" stroke="none" stroke-width="0" opacity="1"/>
		<rect x="103" y="34" width="112" height="127" fill="#fde0ef" stroke="none" stroke-width="0" opacity="1"/>
		<rect x="103" y="9" width="112" height="152" fill="none" stroke="#de77ae" stroke-width="2" opacity="1"/>
		<line x1="103" y1="34" x2="215" y2="34" stroke="#de77ae" stroke-width="1"/>
	</g>
	<text x="141" y="26.75" fill="#000000" font-family="Verdana" font-size="12">books</text>
	<text x="108" y="51.8" fill="#000000" font-family="Verdana" font-size="12">id</text>
	<line x1="108" y1="54" x2="120" y2="54" stroke="#000000" stroke-width="1"/>
	<text x="108" y="68.8" fill="#000000" font-family="Verdana" font-size="12">title</text>
	<text x="108" y="85.8" fill="#000000" font-family="Verdana" font-size="12">author</text>
	<text x="108" y="102.8" fill="#000000" font-family="Verdana" font-size="12">stock</text>
	<text x="108" y="119.8" fill="#000000" font-family="Verdana" font-size="12">publication_date</text>
	<text x="108" y="136.8" fill="#000000" font-family="Verdana" font-size="12">price</text>
	<text x="108" y="153.8" fill="#000000" font-family="Verdana" font-size="12">summary</text>
</g>

<!-- Entity PURCHASE -->
<g>
	<g>
		<rect x="327" y="17" width="136" height="25" fill="#f1b6da" stroke="none" stroke-width="0" opacity="1"/>
		<rect x="327" y="42" width="136" height="111" fill="#fde0ef" stroke="none" stroke-width="0" opacity="1"/>
		<rect x="327" y="17" width="136" height="136" fill="none" stroke="#de77ae" stroke-width="2" opacity="1"/>
		<line x1="327" y1="42" x2="463" y2="42" stroke="#de77ae" stroke-width="1"/>
	</g>
	<text x="367" y="34.75" fill="#000000" font-family="Verdana" font-size="12">purchase</text>
	<text x="332" y="59.8" fill="#000000" font-family="Verdana" font-size="12">id</text>
	<line x1="332" y1="62" x2="344" y2="62" stroke="#000000" stroke-width="1"/>
	<text x="332" y="76.8" fill="#000000" font-family="Verdana" font-size="12">user</text>
	<text x="332" y="93.8" fill="#000000" font-family="Verdana" font-size="12">quantity</text>
	<text x="332" y="110.8" fill="#000000" font-family="Verdana" font-size="12">total_price</text>
	<text x="332" y="127.8" fill="#000000" font-family="Verdana" font-size="12">payment_timestamp</text>
	<text x="332" y="144.8" fill="#000000" font-family="Verdana" font-size="12">book</text>
</g>

<!-- Entity AUTHORS -->
<g>
	<g>
		<rect x="9" y="194" width="78" height="25" fill="#f1b6da" stroke="none" stroke-width="0" opacity="1"/>
		<rect x="9" y="219" width="78" height="77" fill="#fde0ef" stroke="none" stroke-width="0" opacity="1"/>
		<rect x="9" y="194" width="78" height="102" fill="none" stroke="#de77ae" stroke-width="2" opacity="1"/>
		<line x1="9" y1="219" x2="87" y2="219" stroke="#de77ae" stroke-width="1"/>
	</g>
	<text x="25" y="211.75" fill="#000000" font-family="Verdana" font-size="12">authors</text>
	<text x="14" y="236.8" fill="#000000" font-family="Verdana" font-size="12">id</text>
	<line x1="14" y1="239" x2="26" y2="239" stroke="#000000" stroke-width="1"/>
	<text x="14" y="253.8" fill="#000000" font-family="Verdana" font-size="12">name</text>
	<text x="14" y="270.8" fill="#000000" font-family="Verdana" font-size="12">birth_date</text>
	<text x="14" y="287.8" fill="#000000" font-family="Verdana" font-size="12">description</text>
</g>

<!-- Entity USERS -->
<g>
	<g>
		<rect x="121" y="186" width="76" height="25" fill="#f1b6da" stroke="none" stroke-width="0" opacity="1"/>
		<rect x="121" y="211" width="76" height="93" fill="#fde0ef" stroke="none" stroke-width="0" opacity="1"/>
		<rect x="121" y="186" width="76" height="118" fill="none" stroke="#de77ae" stroke-width="2" opacity="1"/>
		<line x1="121" y1="211" x2="197" y2="211" stroke="#de77ae" stroke-width="1"/>
	</g>
	<text x="143" y="203.75" fill="#000000" font-family="Verdana" font-size="12">users</text>
	<text x="126" y="228.8" fill="#000000" font-family="Verdana" font-size="12">id</text>
	<line x1="126" y1="231" x2="138" y2="231" stroke="#000000" stroke-width="1"/>
	<text x="126" y="245.8" fill="#000000" font-family="Verdana" font-size="12">first_name</text>
	<text x="126" y="262.8" fill="#000000" font-family="Verdana" font-size="12">last_name</text>
	<text x="126" y="279.8" fill="#000000" font-family="Verdana" font-size="12">mail</text>
	<text x="126" y="296.8" fill="#000000" font-family="Verdana" font-size="12">password</text>
</g>
</svg>